<svg xmlns="http://www.w3.org/2000/svg" viewBox="0 0 100 100" role="img" aria-label="OpenEnergy monogram">
  <defs>
    <linearGradient id="oe-gradient" x1="0" y1="0" x2="100" y2="100" gradientUnits="userSpaceOnUse">
      <stop offset="0" stop-color="#0097B2" />
      <stop offset="1" stop-color="#7ED957" />
    </linearGradient>
  </defs>

  <rect width="100" height="100" fill="url(#oe-gradient)" />

  <path
    fill="#FFFFFF"
    fill-rule="evenodd"
    d="M34.5 22.5C18.6 22.5 7.5 34 7.5 50s11.1 27.5 27 27.5 27-11.5 27-27.5-11.1-27.5-27-27.5Zm0 14.6c-7.1 0-11.6 5.1-11.6 12.9s4.5 12.9 11.6 12.9S46.1 57.8 46.1 50 41.6 37.1 34.5 37.1Z"
  />

  <path
    fill="#FFFFFF"
    d="M55.2 25.5H92v14H70.3v7.1h18.4v12.8H70.3v7.1H92v14H55.2V25.5Z"
  />
</svg>
